<svg width="20" height="20" viewBox="0 0 20 20" fill="none" xmlns="http://www.w3.org/2000/svg">
<path d="M17.3728 6.46938C17.8002 7.01403 17.3288 7.70817 16.6365 7.70817H2.66663C2.11434 7.70817 1.66663 7.26046 1.66663 6.70817V5.34984C1.66663 3.3165 3.31663 1.6665 5.34996 1.6665H7.28329C8.64163 1.6665 9.06663 2.10817 9.60829 2.83317L10.775 4.38317C11.0333 4.72484 11.0666 4.7665 11.55 4.7665H13.875C15.2938 4.7665 16.5588 5.43201 17.3728 6.46938Z" fill="#444CE7"/>
<path d="M18.32 9.95463C18.3181 9.40367 17.871 8.95802 17.32 8.95803L2.66661 8.95828C2.11433 8.95829 1.66663 9.40601 1.66663 9.95828V13.875C1.66663 16.3333 3.66663 18.3333 6.12496 18.3333H13.875C16.3333 18.3333 18.3333 16.3333 18.3333 13.875L18.32 9.95463ZM12.0833 13.9583H10.675V15.4166C10.675 15.7583 10.3916 16.0416 10.05 16.0416C9.69996 16.0416 9.42496 15.7583 9.42496 15.4166V13.9583H7.91663C7.57496 13.9583 7.29163 13.675 7.29163 13.3333C7.29163 12.9916 7.57496 12.7083 7.91663 12.7083H9.42496V11.25C9.42496 10.9083 9.69996 10.625 10.05 10.625C10.3916 10.625 10.675 10.9083 10.675 11.25V12.7083H12.0833C12.425 12.7083 12.7083 12.9916 12.7083 13.3333C12.7083 13.675 12.425 13.9583 12.0833 13.9583Z" fill="#444CE7"/>
</svg>
