<svg width="25" height="24" viewBox="0 0 25 24" fill="none" xmlns="http://www.w3.org/2000/svg">
<path d="M12.3001 10.9C10.0301 10.31 9.30007 9.7 9.30007 8.75C9.30007 7.66 10.3101 6.9 12.0001 6.9C13.7801 6.9 14.4401 7.75 14.5001 9H16.7101C16.6401 7.28 15.5901 5.7 13.5001 5.19V3H10.5001V5.16C8.56007 5.58 7.00007 6.84 7.00007 8.77C7.00007 11.08 8.91007 12.23 11.7001 12.9C14.2001 13.5 14.7001 14.38 14.7001 15.31C14.7001 16 14.2101 17.1 12.0001 17.1C9.94007 17.1 9.13007 16.18 9.02007 15H6.82007C6.94007 17.19 8.58007 18.42 10.5001 18.83V21H13.5001V18.85C15.4501 18.48 17.0001 17.35 17.0001 15.3C17.0001 12.46 14.5701 11.49 12.3001 10.9Z" fill="white"/>
</svg>
