<svg width="132" height="56" viewBox="0 0 132 56" fill="none" xmlns="http://www.w3.org/2000/svg">
<path fill-rule="evenodd" clip-rule="evenodd" d="M5.02239 5.60394H0V30.982H14.7486V26.1591H5.02239V5.60427V5.60394ZM106.078 30.9461H110.786V30.2561C110.786 21.867 110.786 13.4791 110.787 5.09029C110.787 4.88628 110.803 4.68227 110.811 4.47925H106.079L106.078 30.9461Z" fill="#1570EF"/>
<path d="M57.2486 13.4468V12.8825H52.6471V14.9739C52.5474 14.9098 52.4984 14.8923 52.4684 14.8574C50.3474 12.4011 47.6217 11.8917 44.6243 12.6166C40.531 13.6057 37.8402 17.149 37.7455 21.4707C37.6237 27.0284 42.0682 31.2685 47.6316 30.8671C49.4825 30.7328 51.0622 29.9744 52.2937 28.5664C52.3868 28.4594 52.4049 28.29 52.4579 28.1491L52.6461 28.3341C52.6461 29.0484 52.6807 29.7648 52.6389 30.4775C52.5533 31.9362 51.9991 33.1573 50.6741 33.921C48.224 35.3326 44.7866 34.5482 43.2069 32.2277C43.17 32.1734 43.117 32.1306 43.0515 32.0606C41.7378 32.8082 40.4332 33.5515 39.0892 34.3169C39.8329 35.6808 40.8393 36.7114 42.1491 37.4165C44.855 38.8729 47.7261 39.0769 50.6761 38.3777C52.8709 37.8584 54.6944 36.7459 55.9529 34.8364C56.9461 33.329 57.2542 31.64 57.2512 29.8664C57.2427 24.3933 57.2482 18.9196 57.2482 13.4468H57.2486ZM47.4973 26.5848C44.5605 26.5713 42.4299 24.4766 42.4378 21.6115C42.446 18.7613 44.6009 16.6787 47.5431 16.6781C50.4793 16.6778 52.6514 18.7692 52.6609 21.6073C52.6705 24.5036 50.4968 26.599 47.4973 26.5848ZM89.865 13.3244C89.1828 13.7147 88.6046 14.2833 87.9454 14.7953V5.61475H83.2738V30.9408H87.947V29.0264C88.6197 29.5463 89.2019 30.1162 89.8874 30.5058C92.924 32.2303 97.0322 31.6562 99.6534 29.1929C103.566 25.5174 103.807 19.12 100.183 15.149C97.5455 12.2593 93.1287 11.458 89.8647 13.3244H89.865ZM92.9901 27.0149C90.0345 27.0231 87.9556 24.9238 87.9483 21.9225C87.9404 18.9318 90.0253 16.7965 92.9632 16.787C95.8987 16.7771 98.0293 18.9071 98.0468 21.8705C98.0652 24.8741 95.9692 27.0063 92.9901 27.0149ZM25.6764 12.3396C20.2739 12.3264 16.0403 16.5172 16.0314 21.887C16.0226 27.2571 20.2469 31.4831 25.6293 31.4916C31.044 31.4989 35.3121 27.2752 35.3131 21.908C35.3144 16.5567 31.0799 12.3524 25.6764 12.3392V12.3396ZM25.8205 26.903C22.909 26.9695 20.8041 24.9346 20.7313 21.9827C20.6612 19.143 22.7138 16.9877 25.5701 16.9009C28.3845 16.8153 30.5438 18.9271 30.6162 21.8356C30.6866 24.6533 28.6179 26.8382 25.8205 26.903ZM70.2454 12.3396C64.8416 12.3178 60.6001 16.5007 60.5824 21.8689C60.5649 27.239 64.785 31.4775 70.1625 31.4916C75.5814 31.5048 79.8531 27.2929 79.8643 21.9261C79.8752 16.5751 75.6472 12.3609 70.2454 12.3392V12.3396ZM70.2099 26.9066C67.3737 26.9083 65.2961 24.8093 65.2796 21.9241C65.2631 19.0667 67.351 16.9259 70.1799 16.8989C73.0184 16.8719 75.1556 19.012 75.1684 21.8939C75.1816 24.7767 73.0763 26.905 70.2099 26.9066Z" fill="#1570EF"/>
<path fill-rule="evenodd" clip-rule="evenodd" d="M127.485 12.8325C127.093 12.8252 126.963 12.9812 126.854 13.3158C126.078 15.6952 125.284 18.0686 124.495 20.4437C124.004 21.9218 123.511 23.3993 122.982 24.9886C122.871 24.7319 122.8 24.5842 122.741 24.4318C121.296 20.7191 119.855 17.0038 118.399 13.2948C118.331 13.1204 118.14 12.867 118.003 12.8647C116.395 12.8348 114.787 12.8456 113.101 12.8456C113.203 13.0944 113.275 13.2793 113.353 13.4619C115.688 18.9465 118.024 24.4308 120.354 29.9174C120.436 30.1106 120.545 30.3633 120.486 30.5344C119.912 32.1859 118.959 33.4712 117.086 33.7815C116.67 33.8506 116.245 33.8736 115.801 33.92V38.2306C118.061 38.3536 120.102 37.8995 121.855 36.4767C123.47 35.1648 124.488 33.4343 125.195 31.5278C127.456 25.4288 129.68 19.3167 131.915 13.2089C131.953 13.1066 131.965 12.996 132 12.8436C130.463 12.8436 128.974 12.8598 127.485 12.8325H127.485Z" fill="#1570EF"/>
<path d="M67.9522 37.3369L72.4332 39.0045C68.5946 49.1455 58.8147 56 47.7363 56C36.5712 56 26.7305 49.0373 22.9557 38.7804L27.4519 37.1536C30.5434 45.5543 38.5998 51.2544 47.7363 51.2544C56.802 51.2544 64.8083 45.6428 67.9522 37.3369ZM18.4312 8.07705L14.8888 4.72106C20.6599 -1.57368 30.0919 -1.57368 35.863 4.72106L32.3206 8.07705C28.4645 3.87079 22.2873 3.87079 18.4312 8.07705ZM63.0684 8.07705L59.5259 4.72106C65.297 -1.57368 74.729 -1.57368 80.5001 4.72106L76.9577 8.07705C73.1016 3.87079 66.9248 3.87079 63.0684 8.07705Z" fill="#1570EF"/>
</svg>
